<svg xmlns="http://www.w3.org/2000/svg" xmlns:xlink="http://www.w3.org/1999/xlink" width="426.086" height="519.378" xml:space="preserve"><defs><path id="a" d="M0-3.624h426.086v536.125H0z"/></defs><clipPath id="b"><use xlink:href="#a" overflow="visible"/></clipPath><path clip-path="url(#b)" fill="#F5A200" d="M0 0h425.722v425.717H0z"/><path clip-path="url(#b)" fill="#FFF" d="M149.873 365.254H83.461V134.505H40.034V95.339c29.805.422 49.386-11.931 60.027-40.877h49.812v310.792zm226.478-63.013v63.022H213.719V299.26c74.071-100.894 97.922-117.924 97.922-156.664 0-15.755-5.973-25.117-17.457-25.117-15.751 0-19.164 12.338-19.164 26.396v18.296h-62.159v-20.429c0-48.11 23.41-87.276 81.323-87.276 55.343 0 85.569 34.905 85.569 90.685 0 66.411-56.196 109.838-94.514 157.09h91.112z"/><path clip-path="url(#b)" d="M.01 519.378h425.712V0H.01m417.199 417.194H8.518V8.508h408.691v408.686z"/><path clip-path="url(#b)" d="M381.26 17.031v3.159h-6.73v21.33h-3.969V20.19h-6.729v-3.159h17.428zm27.436 24.489h-3.959V22.231h-.115l-6.778 19.288h-3.24l-6.441-19.288h-.115V41.52h-3.969V17.031h6.288l6.107 18.219h.114l5.935-18.219h6.174V41.52z"/><text xml:space="preserve" style="font-style:normal;font-weight:400;font-size:85.33333px;line-height:1.25;font-family:sans-serif;letter-spacing:0;word-spacing:0;fill:#000;fill-opacity:1;stroke:none" x="107.94" y="498.47"><tspan x="107.94" y="498.47" style="font-size:85.33333px;fill:#fff">PEGI</tspan></text></svg>