<svg xmlns="http://www.w3.org/2000/svg" xmlns:xlink="http://www.w3.org/1999/xlink" width="426.082" height="519.378" xml:space="preserve"><defs><path id="a" d="M0-3.624h426.082v536.125H0z"/></defs><clipPath id="b"><use xlink:href="#a" overflow="visible"/></clipPath><path clip-path="url(#b)" fill="#F5A200" d="M0 0h425.727v425.717H0z"/><path clip-path="url(#b)" fill="#FFF" d="M149.868 365.254H83.447V134.505H40.029V95.339c29.8.422 49.386-11.931 60.027-40.877h49.812v310.792zM280.125 189c12.77-11.926 22.145-20.439 43.427-20.439 39.593 0 60.453 33.635 60.453 96.226 0 58.756-15.328 105.586-85.569 105.586-49.391 0-74.507-25.126-83.446-72.81-3.83-20.86-4.262-46.414-4.262-81.314.432-42.583.853-68.127 4.692-88.987 8.939-47.679 34.047-72.801 83.438-72.801 44.692 0 80.892 27.677 80.892 74.512v15.756h-62.16v-7.248c0-21.282-8.091-26.818-18.731-26.818-12.77 1.706-18.311 13.627-18.732 30.648V189zm19.155 40.868c-13.191 0-19.154 13.206-19.154 41.299 0 28.524 5.963 41.294 19.154 41.294 14.054 0 20.017-12.77 20.017-41.294-.001-28.094-5.964-41.299-20.017-41.299"/><path clip-path="url(#b)" d="M0 519.378h425.727V0H0m417.195 417.194H8.513V8.508h408.682v408.686z"/><path clip-path="url(#b)" d="M381.245 17.031v3.159h-6.729v21.33h-3.95V20.19h-6.739v-3.159h17.418zm27.446 24.489h-3.959V22.231h-.115L397.83 41.52h-3.221l-6.462-19.288h-.115V41.52h-3.949V17.031h6.279l6.106 18.219h.115l5.943-18.219h6.164V41.52z"/><text xml:space="preserve" style="font-style:normal;font-weight:400;font-size:85.33333px;line-height:1.25;font-family:sans-serif;letter-spacing:0;word-spacing:0;fill:#000;fill-opacity:1;stroke:none" x="107.94" y="499.17"><tspan x="107.94" y="499.17" style="font-size:85.33333px;fill:#fff">PEGI</tspan></text></svg>