<?xml version="1.0" encoding="UTF-8" standalone="no"?>
<svg
             xmlns:dc="http://purl.org/dc/elements/1.1/"
             xmlns:cc="http://creativecommons.org/ns#"
             xmlns:rdf="http://www.w3.org/1999/02/22-rdf-syntax-ns#"
             xmlns:svg="http://www.w3.org/2000/svg"
             xmlns="http://www.w3.org/2000/svg"
             xmlns:xlink="http://www.w3.org/1999/xlink"
             xmlns:sodipodi="http://sodipodi.sourceforge.net/DTD/sodipodi-0.dtd"
             xmlns:inkscape="http://www.inkscape.org/namespaces/inkscape"
             width="425.292"
             height="519.372"
             xml:space="preserve"
             id="svg2"
             version="1.1"
             inkscape:version="0.91 r13725"
             sodipodi:docname="18.svg"><metadata
                         id="metadata32"><rdf:RDF><cc:Work
                                                 rdf:about=""><dc:format>image/svg+xml</dc:format><dc:type
                                                             rdf:resource="http://purl.org/dc/dcmitype/StillImage" /></cc:Work></rdf:RDF></metadata><sodipodi:namedview
                         pagecolor="#ffffff"
                         bordercolor="#666666"
                         borderopacity="1"
                         objecttolerance="10"
                         gridtolerance="10"
                         guidetolerance="10"
                         inkscape:pageopacity="0"
                         inkscape:pageshadow="2"
                         inkscape:window-width="1920"
                         inkscape:window-height="1028"
                         id="namedview30"
                         showgrid="false"
                         inkscape:zoom="0.45439491"
                         inkscape:cx="212.646"
                         inkscape:cy="259.686"
                         inkscape:window-x="1358"
                         inkscape:window-y="-8"
                         inkscape:window-maximized="1"
                         inkscape:current-layer="svg2" /><defs
                         id="defs4"><path
                                     id="a"
                                     d="M0-3.624h426.082v536.12H0z" /></defs><clipPath
                         id="b"><use
                                     xlink:href="#a"
                                     overflow="visible"
                                     id="use8" /></clipPath><path
                         clip-path="url(#b)"
                         fill="#E2011A"
                         d="M0 0h425.717v425.712H0z"
                         id="path10" /><path
                         clip-path="url(#b)"
                         fill="#FFF"
                         d="M149.866 365.25H83.451V134.503H40.028V95.337c29.805.422 49.39-11.93 60.031-40.876h49.807V365.25zM211.162 276.699c0-30.657 6.812-52.361 31.923-71.524-20.86-20.86-28.52-39.17-28.52-67.264 0-48.963 31.079-83.45 82.166-83.45 51.086 0 82.166 34.487 82.166 83.45 0 28.093-7.66 46.403-28.521 67.264 25.126 19.164 31.923 40.867 31.923 71.524 0 55.765-17.438 93.67-85.568 93.67-68.112 0-85.569-37.905-85.569-93.67m85.569-43.426c-15.329 0-19.164 10.641-19.164 39.597 0 29.368 3.835 39.587 19.164 39.587 15.319 0 19.163-10.219 19.163-39.587 0-28.956-3.844-39.597-19.163-39.597m0-122.611c-14.045 0-17.457 6.811-17.457 36.194 0 29.368 3.412 36.184 17.457 36.184 14.044 0 17.457-6.816 17.457-36.184 0-29.383-3.413-36.194-17.457-36.194"
                         id="path12" /><path
                         clip-path="url(#b)"
                         d="M0 519.372h425.717V0H0m417.205 417.189H8.522V8.508h408.682v408.681z"
                         id="path14" /><path
                         clip-path="url(#b)"
                         d="M381.254 17.03v3.159h-6.739v21.33h-3.959v-21.33h-6.729V17.03h17.427zm27.437 24.489h-3.959V22.231h-.115l-6.787 19.288h-3.23l-6.451-19.288h-.115v19.288h-3.96V17.03h6.289l6.106 18.219h.115l5.935-18.219h6.173v24.489z"
                         id="path16" /></svg>