<?xml version="1.0" encoding="UTF-8" standalone="no"?>
<svg
             xmlns:dc="http://purl.org/dc/elements/1.1/"
             xmlns:cc="http://creativecommons.org/ns#"
             xmlns:rdf="http://www.w3.org/1999/02/22-rdf-syntax-ns#"
             xmlns:svg="http://www.w3.org/2000/svg"
             xmlns="http://www.w3.org/2000/svg"
             xmlns:xlink="http://www.w3.org/1999/xlink"
             xmlns:sodipodi="http://sodipodi.sourceforge.net/DTD/sodipodi-0.dtd"
             xmlns:inkscape="http://www.inkscape.org/namespaces/inkscape"
             width="426.082"
             height="519.378"
             xml:space="preserve"
             id="svg2"
             version="1.1"
             inkscape:version="0.91 r13725"
             sodipodi:docname="3.svg"><metadata
                         id="metadata32"><rdf:RDF><cc:Work
                                                 rdf:about=""><dc:format>image/svg+xml</dc:format><dc:type
                                                             rdf:resource="http://purl.org/dc/dcmitype/StillImage" /></cc:Work></rdf:RDF></metadata><sodipodi:namedview
                         pagecolor="#ffffff"
                         bordercolor="#666666"
                         borderopacity="1"
                         objecttolerance="10"
                         gridtolerance="10"
                         guidetolerance="10"
                         inkscape:pageopacity="0"
                         inkscape:pageshadow="2"
                         inkscape:window-width="1920"
                         inkscape:window-height="1028"
                         id="namedview30"
                         showgrid="false"
                         inkscape:zoom="0.90877936"
                         inkscape:cx="258.40954"
                         inkscape:cy="218.97044"
                         inkscape:window-x="1358"
                         inkscape:window-y="-8"
                         inkscape:window-maximized="1"
                         inkscape:current-layer="svg2" /><defs
                         id="defs4"><path
                                     id="a"
                                     d="M0-3.624h426.082v536.125H0z" /></defs><clipPath
                         id="b"><use
                                     xlink:href="#a"
                                     overflow="visible"
                                     id="use8" /></clipPath><path
                         clip-path="url(#b)"
                         fill="#A5C400"
                         d="M0 0h425.717v425.717H0z"
                         id="path10" /><path
                         clip-path="url(#b)"
                         fill="#FFF"
                         d="M183.924 178.78h14.471c22.993 0 27.25-11.916 27.25-32.776 0-25.975-5.101-34.488-17.889-34.488-10.642 0-16.6 8.935-16.6 29.795v11.926h-62.581c0-63.435 20.007-98.775 83.873-98.775 48.954 0 79.612 28.098 79.612 86.006 0 38.313-11.926 54.49-30.658 61.728 22.145 12.348 34.914 25.539 34.914 71.099 0 60.448-22.566 97.078-87.271 97.078-75.365 0-85.153-48.968-84.731-113.687h65.567v28.108c0 17.025 6.812 24.264 16.599 24.264 12.774 0 20.86-8.944 20.86-37.47 0-31.492-6.797-42.564-30.648-42.564h-12.77V178.78z"
                         id="path12" /><path
                         clip-path="url(#b)"
                         d="M0 519.378h425.717V0H0m417.205 417.194H8.522V8.508h408.682v408.686z"
                         id="path14" /><path
                         clip-path="url(#b)"
                         d="M381.254 17.031v3.159h-6.729v21.33h-3.96V20.19h-6.739v-3.159h17.428zm27.437 24.489h-3.949V22.231h-.125l-6.777 19.288h-3.24l-6.442-19.288h-.115V41.52h-3.959V17.031h6.279l6.106 18.219h.125l5.934-18.219h6.164V41.52z"
                         id="path16" /></svg>