<svg xmlns="http://www.w3.org/2000/svg" xmlns:xlink="http://www.w3.org/1999/xlink" width="426.082" height="519.378" xml:space="preserve"><defs><path id="a" d="M0-3.624h426.082v536.125H0z"/></defs><clipPath id="b"><use xlink:href="#a" overflow="visible"/></clipPath><path clip-path="url(#b)" fill="#A5C400" d="M0 0h425.717v425.717H0z"/><path clip-path="url(#b)" fill="#FFF" d="M183.924 178.78h14.471c22.993 0 27.25-11.916 27.25-32.776 0-25.975-5.101-34.488-17.889-34.488-10.642 0-16.6 8.935-16.6 29.795v11.926h-62.581c0-63.435 20.007-98.775 83.873-98.775 48.954 0 79.612 28.098 79.612 86.006 0 38.313-11.926 54.49-30.658 61.728 22.145 12.348 34.914 25.539 34.914 71.099 0 60.448-22.566 97.078-87.271 97.078-75.365 0-85.153-48.968-84.731-113.687h65.567v28.108c0 17.025 6.812 24.264 16.599 24.264 12.774 0 20.86-8.944 20.86-37.47 0-31.492-6.797-42.564-30.648-42.564h-12.77V178.78z"/><path clip-path="url(#b)" d="M0 519.378h425.717V0H0m417.205 417.194H8.522V8.508h408.682v408.686z"/><path clip-path="url(#b)" d="M381.254 17.031v3.159h-6.729v21.33h-3.96V20.19h-6.739v-3.159h17.428zm27.437 24.489h-3.949V22.231h-.125l-6.777 19.288h-3.24l-6.442-19.288h-.115V41.52h-3.959V17.031h6.279l6.106 18.219h.125l5.934-18.219h6.164V41.52z"/><text xml:space="preserve" style="font-style:normal;font-weight:400;font-size:85.33333px;line-height:1.25;font-family:sans-serif;letter-spacing:0;word-spacing:0;fill:#000;fill-opacity:1;stroke:none" x="107.94" y="498.47"><tspan x="107.94" y="498.47" style="font-size:85.33333px;fill:#fff">PEGI</tspan></text></svg>