<svg xmlns="http://www.w3.org/2000/svg" xmlns:xlink="http://www.w3.org/1999/xlink" width="170.667" height="170.667" viewBox="0 0 160 160"><defs><radialGradient xlink:href="#a" id="b" cx="442.555" cy="467.876" fx="442.555" fy="467.876" r="80" gradientUnits="userSpaceOnUse" gradientTransform="matrix(-1.54352 1.49111 -1.12353 -1.16302 1651.318 352.123)"/><linearGradient id="a"><stop style="stop-color:#1381c4;stop-opacity:1" offset="0"/><stop style="stop-color:#063d8a;stop-opacity:1" offset="1"/></linearGradient></defs><path style="color:#000;clip-rule:nonzero;display:inline;overflow:visible;visibility:visible;opacity:1;isolation:auto;mix-blend-mode:normal;color-interpolation:sRGB;color-interpolation-filters:linearRGB;solid-color:#000;solid-opacity:1;fill:url(#b);fill-opacity:1;fill-rule:nonzero;stroke:none;stroke-width:.2;stroke-linecap:round;stroke-linejoin:miter;stroke-miterlimit:4;stroke-dasharray:none;stroke-dashoffset:0;stroke-opacity:1;color-rendering:auto;image-rendering:auto;shape-rendering:auto;text-rendering:auto;enable-background:accumulate" d="M292.047 446.181h160v160h-160z" transform="translate(-292.047 -446.181)"/><path d="M54.884 126.636c-.098-.12-.03-.422.288-1.285l.57-1.552c.083-.232.372-.9.64-1.485.485-1.055.488-1.071.488-2.376 0-1.324-.115-1.806-.863-3.598-.137-.328-1.9-5.497-2.617-7.669-.335-1.014-.576-1.928-.537-2.03.062-.162.266-.183 1.519-.156 1.393.031 1.454.043 1.655.318.192.263 1.09 2.643 1.398 3.712.46 1.586 1.484 4.397 1.604 4.397.077 0 .257-.295.4-.656.143-.361.304-.76.359-.885.245-.563 1.83-4.658 2.114-5.464.49-1.391.479-1.383 2.04-1.428 1.131-.033 1.333-.012 1.393.145.074.193.065.221-.708 2.12-.496 1.22-2.815 7.048-3.59 9.024-.234.597-.946 2.383-1.583 3.969-.636 1.586-1.156 2.908-1.156 2.937 0 .03-.129.335-.286.679-.157.343-.285.672-.285.73 0 .059-.107.242-.237.407-.227.289-.283.301-1.357.301-.805 0-1.156-.044-1.249-.155zm13.64-6.555c-.729-.024-1.17-.087-1.226-.176-.146-.23-.106-1.526.052-1.656.085-.07 1.139-.134 2.617-.157l2.475-.039.495-.347c.775-.544.947-1.007.949-2.565 0-1.05-.04-1.39-.204-1.69-.43-.79-1.039-1.166-1.89-1.166-.806 0-2.173-.281-2.8-.576-.496-.233-1.248-.875-1.686-1.439-.102-.132-.303-.542-.446-.911-.352-.91-.388-2.966-.07-3.96.212-.66.866-1.734 1.207-1.982.1-.072.301-.237.448-.366.148-.128.61-.367 1.028-.53.757-.294.775-.295 3.673-.262l2.913.032v1.828l-2.285.074c-3.06.099-3.388.2-3.84 1.182-.246.536-.294 2.186-.083 2.81.355 1.045.804 1.27 2.953 1.473 1.086.104 1.568.204 2.016.419 1.256.604 1.97 1.749 2.284 3.667.173 1.05.173 1.215-.002 2.25-.32 1.9-1.06 3.098-2.28 3.698-.433.213-.841.288-1.995.367-1.416.097-1.962.1-4.302.022zm22.04-.044c-2.07-.26-2.97-1.105-3.259-3.063-.472-3.2-.089-6.951.853-8.343.829-1.225 1.939-1.88 3.486-2.057 1.063-.122 6.156-.157 6.45-.044.161.062.18.762.18 6.736v6.668l-.257.064c-.141.035-.822.049-1.513.03l-1.257-.033-.057-5.71-.057-5.712-1.606-.031c-1.517-.03-1.628-.017-1.999.232-.85.573-1.133 2.021-1.134 5.828-.001 3.364.025 3.41 1.982 3.505l1.272.06.033 1 .033 1-1.175-.015a21.887 21.887 0 0 1-1.975-.115zm13.493 0c-1.003-.13-1.449-.346-2.181-1.062-1.058-1.035-1.023-.761-1.063-8.115-.033-5.956-.022-6.405.162-6.54.296-.216 2.708-.2 2.89.02.075.09.166.566.202 1.057.037.49.123.93.192.976.07.046.725.085 1.458.086.733 0 1.414.033 1.514.07.141.055.18.248.18.892 0 .486-.055.877-.137.958-.092.093-.626.137-1.656.137H104.1v8.897l.257.297c.208.241.387.31.943.356 1.262.108 1.199.058 1.199.951 0 1.145-.006 1.152-.898 1.135a17.287 17.287 0 0 1-1.543-.115zm-83.146-.061c-.042-.042-.077-4.05-.077-8.909v-8.833h4.137c4.623 0 4.664.005 5.753.808 1.177.866 1.75 2.235 1.846 4.403.068 1.545-.115 2.608-.625 3.628-.397.793-1.193 1.596-1.95 1.966-.596.292-.772.32-2.158.348-.83.017-1.73-.007-2-.053l-.491-.083-.034-.721c-.02-.403.02-.787.089-.87.083-.1.527-.163 1.354-.191 1.752-.06 2.08-.325 2.473-1.992.265-1.127.195-2.764-.165-3.813-.455-1.33-.876-1.516-3.317-1.465l-1.656.034-.057 7.767c-.032 4.272-.1 7.83-.15 7.91-.099.152-2.825.213-2.972.066zm13.772-.018c-.114-.072-.138-1.925-.115-8.879l.03-8.788H37.567l.03 8.788c.023 6.954-.001 8.807-.115 8.879-.079.05-.708.09-1.4.09-.69 0-1.32-.04-1.4-.09zm7.715-.066c-1.156-.311-2-1.217-2.284-2.453-.099-.43-.147-1.549-.147-3.383 0-2.308.034-2.868.213-3.541.663-2.495 1.935-3.671 4.26-3.937 1.17-.134 6.197-.156 6.399-.028.173.11.24 13.228.068 13.4-.061.062-.728.095-1.528.077l-1.418-.032-.057-5.71-.057-5.712-1.485-.031c-1.353-.028-1.53-.008-1.999.228-.978.495-1.118 1.258-1.134 6.165-.008 2.452-.005 2.48.265 2.795.261.304.324.318 1.513.361.683.024 1.305.096 1.384.16.087.07.142.4.142.847 0 .68-.02.74-.293.843-.417.159-3.202.123-3.842-.049zm39.522.052c-.61-.119-1.572-.9-2.01-1.63-.549-.916-.605-1.713-.582-8.18.018-4.69.048-5.661.183-5.796.212-.212 2.77-.234 2.978-.025.084.084.137.497.137 1.072 0 1.122-.087 1.071 1.852 1.074 1.205 0 1.35.023 1.457.222.132.248.154.94.046 1.478l-.071.357h-3.291l.032 4.509c.038 5.316-.058 4.96 1.364 5.057.461.032.903.109.981.171.088.07.143.396.143.838 0 .6-.038.745-.22.843-.246.131-2.34.138-3 .01zm27.486-.035c-.03-.078-.042-3.124-.025-6.767l.03-6.625 1.256-.033c.69-.018 1.372-.004 1.513.03l.257.065v6.667c0 5.974-.019 6.675-.18 6.737-.1.038-.77.069-1.489.069-.941 0-1.323-.04-1.362-.143zm9.313.014c-2.042-.331-3.514-1.713-4.002-3.754-.233-.974-.205-4.757.043-5.757.387-1.565 1.287-2.764 2.474-3.295.283-.126.61-.278.726-.337.327-.167 2.132-.277 3.182-.195 2.492.195 4.085 1.449 4.628 3.642.377 1.52.293 5.477-.142 6.716-.507 1.445-1.786 2.558-3.37 2.931-.806.19-2.525.214-3.539.05zm2.5-1.865c.95-.336 1.376-1.04 1.611-2.67.258-1.777.05-4.98-.377-5.8-.413-.794-1.033-1.12-2.135-1.119-.985 0-1.539.212-1.927.738-.834 1.127-1.012 5.214-.33 7.564.329 1.131 1.846 1.75 3.158 1.287zm7.008 1.9c-.114-.073-.138-1.49-.114-6.71l.03-6.616 1.94-.105a33.267 33.267 0 0 1 3.77.012c1.676.107 1.89.146 2.582.47 1.454.682 2.33 2.048 2.613 4.077.169 1.209.15 8.657-.021 8.83-.153.152-2.679.194-2.909.048-.097-.062-.146-1.326-.18-4.596-.05-4.819-.113-5.402-.668-6.182-.411-.577-.741-.67-2.382-.67h-1.49v5.65c0 5.469-.008 5.653-.222 5.768-.258.138-2.738.158-2.95.023zm-18.794-15.17c-.044-.043-.08-.636-.08-1.316v-1.238h1.483c1.74 0 1.631-.105 1.578 1.542l-.034 1.028-1.434.032c-.789.017-1.47-.004-1.513-.048zM85.196 94.041a49.62 49.62 0 0 1-1.542-.482 814.792 814.792 0 0 0-5.996-1.903 15.784 15.784 0 0 1-.8-.268c-.125-.05-.768-.257-1.427-.46-1.675-.517-2.319-.734-2.485-.839-.21-.132-.21-56.793 0-56.87.153-.056.99.113 3.284.662l1.142.272c.973.23 2.843.712 3.313.854.282.085.72.209.97.275.45.12 1.16.32 2.285.646.314.091.854.246 1.199.343.868.246 3.443 1.06 4.34 1.373 2.158.752 3.232 1.142 3.94 1.435 5.484 2.264 8.531 4.86 10.248 8.73.858 1.936 1.575 5.862 1.573 8.624 0 2.2-.447 5.05-1.045 6.68-.92 2.506-2.779 4.398-5.121 5.213-.652.227-.96.258-2.513.252-1.445-.005-1.917-.05-2.57-.243-1.305-.386-2.624-.867-2.92-1.065l-.278-.186-.023-9.751c-.016-6.454-.067-10.089-.153-10.747-.13-1.01-.37-1.79-.68-2.209-.329-.444-1.09-.952-1.626-1.085-1.094-.272-1.78.113-2.177 1.217-.31.862-.301.266-.402 27.79-.052 14.344-.118 21.758-.193 21.774-.063.013-.217-.001-.343-.032zm3.055-.907c-.225-.089-.204-7.04.022-7.267.09-.09.694-.355 1.342-.588.648-.233 1.513-.549 1.923-.7.41-.153.802-.277.872-.277.07 0 .274-.077.454-.17.18-.094.407-.171.504-.172a.496.496 0 0 0 .286-.098c.06-.054.391-.186.737-.294.345-.107 1.013-.34 1.484-.515.472-.176 1.191-.434 1.6-.573a89.09 89.09 0 0 0 1.656-.592c.502-.185 1.479-.535 2.17-.776.69-.242 1.462-.515 1.713-.607.251-.092.791-.282 1.2-.423.408-.14.904-.327 1.102-.416.198-.089.417-.161.487-.161s.216-.049.325-.108c.11-.06.533-.221.94-.36 1.823-.616 2.97-1.103 2.97-1.26 0-.055.076-.1.17-.1.23 0 .544-.508.544-.882 0-.453-.595-.789-1.913-1.08-.854-.188-3.548-.248-4.283-.094-1.54.321-2.758.642-3.484.918-.125.048-.69.25-1.256.448-.565.198-1.197.435-1.403.526-.206.09-.466.164-.577.164-.11 0-.25.047-.31.104-.06.057-.288.157-.508.221-.22.065-.837.277-1.37.471-.535.194-1.28.459-1.657.587-.377.129-.763.264-.857.3-.71.27-2.06.746-2.341.826-.189.054-.796.26-1.35.458-.795.284-1.042.332-1.171.225-.225-.187-.244-7.15-.02-7.455.145-.199 1.159-.576 2.484-.924.408-.108.899-.243 1.09-.302.193-.058.578-.151.857-.207l1.65-.33c4.772-.963 9.896-1.109 14.506-.413 1.758.265 4.346.802 4.653.966.11.058.267.105.352.105.084 0 .637.157 1.229.35 1.12.362 1.252.41 1.965.72.238.102.48.187.54.187.192 0 2.283 1.063 2.283 1.16 0 .053.078.096.174.096.273 0 1.835 1.607 2.04 2.098.103.246.185.757.185 1.15 0 .6-.058.802-.388 1.35-.394.654-.626.906-1.45 1.579-.442.36-1.989 1.361-2.103 1.361-.031 0-.378.149-.77.33-.77.355-2.259.927-2.413.927-.052 0-.256.074-.454.164-.198.09-.771.303-1.274.473-.503.17-1.505.532-2.227.806-.723.274-1.393.498-1.49.498a.481.481 0 0 0-.286.102c-.06.056-.649.285-1.308.508-.66.224-1.482.515-1.828.646-1.333.507-1.903.713-2.398.868a8.354 8.354 0 0 0-.743.266c-.37.17-1.824.694-1.927.694-.052 0-.256.074-.454.164-.198.09-.951.37-1.673.621-1.383.48-3.249 1.144-4.683 1.665-.471.171-.985.355-1.142.41-.158.054-.774.276-1.371.492-3.099 1.125-3.414 1.224-3.627 1.14zm-29.953-6.09a32.085 32.085 0 0 0-1.428-.168c-.44-.04-1.133-.146-1.542-.234-.408-.088-1.153-.245-1.656-.348a24.24 24.24 0 0 1-1.256-.287c-.189-.054-.651-.183-1.028-.285-2.818-.769-5.878-2.072-6.712-2.859-1.274-1.202-1.69-2.724-1.076-3.935.313-.616.854-1.25 1.068-1.25.084 0 .153-.04.153-.086 0-.047.193-.214.428-.37.235-.157.453-.311.485-.343.19-.194 3.215-1.714 3.41-1.714.062 0 .258-.073.435-.163.178-.089.555-.25.838-.356.283-.107.617-.236.742-.286.126-.051.563-.207.971-.347.696-.239 2.245-.79 2.627-.936.094-.035.506-.18.914-.32 1.981-.681 2.526-.88 2.593-.947.04-.04.146-.072.236-.072s.325-.072.523-.16a4.94 4.94 0 0 1 .588-.22c.126-.032.666-.222 1.2-.421a83.68 83.68 0 0 1 2.17-.763c.66-.221 1.336-.473 1.502-.561.167-.088.386-.16.487-.16a.99.99 0 0 0 .382-.104c.11-.057.661-.265 1.227-.463a28.157 28.157 0 0 0 1.403-.524c.206-.09.448-.165.538-.165.151 0 .75-.23 1.227-.47.297-.151.511-.122.589.08.09.236.09 6.827 0 7.063-.093.24-1.517.87-2.73 1.21-.188.052-.779.258-1.313.457-.534.2-1.125.413-1.313.475-.364.12-.59.207-1.143.438a6.254 6.254 0 0 1-.685.232c-.188.05-.625.2-.97.336-.346.135-.912.341-1.257.459-.346.118-.911.324-1.257.46a10.78 10.78 0 0 1-.856.302c-.263.065-.512.159-1.118.421-.237.103-.483.188-.545.188-.33 0-1.566.736-1.793 1.068-.489.713-.275 1.003 1.077 1.465.97.332 1.083.345 3.007.346 2.358 0 3.39-.213 6.168-1.278.695-.266 2.069-.768 2.513-.917.157-.053.64-.229 1.073-.39 1.326-.495 1.21-.761 1.21 2.797 0 1.827-.045 3.178-.112 3.303-.299.557-2.604.823-7.483.863-2.135.017-4.166-.01-4.511-.062z" style="fill:#f8f8f8"/></svg>