<?xml version="1.0" encoding="UTF-8" standalone="no"?>
<svg
             xmlns:dc="http://purl.org/dc/elements/1.1/"
             xmlns:cc="http://creativecommons.org/ns#"
             xmlns:rdf="http://www.w3.org/1999/02/22-rdf-syntax-ns#"
             xmlns:svg="http://www.w3.org/2000/svg"
             xmlns="http://www.w3.org/2000/svg"
             xmlns:xlink="http://www.w3.org/1999/xlink"
             xmlns:sodipodi="http://sodipodi.sourceforge.net/DTD/sodipodi-0.dtd"
             xmlns:inkscape="http://www.inkscape.org/namespaces/inkscape"
             width="170.667"
             height="170.667"
             viewBox="0 0 160 160"
             id="svg2"
             version="1.1"
             inkscape:version="0.91 r13725"
             sodipodi:docname="PS4.svg">
            <metadata
                         id="metadata18">
                        <rdf:RDF>
                                    <cc:Work
                                                 rdf:about="">
                                                <dc:format>image/svg+xml</dc:format>
                                                <dc:type
                                                             rdf:resource="http://purl.org/dc/dcmitype/StillImage" />
                                    </cc:Work>
                        </rdf:RDF>
            </metadata>
            <defs
                         id="defs16">
                        <radialGradient
                                     gradientTransform="matrix(-1.54352,1.49111,-1.12353,-1.16302,1359.271,-94.058006)"
                                     gradientUnits="userSpaceOnUse"
                                     r="80"
                                     fy="467.876"
                                     fx="442.555"
                                     cy="467.876"
                                     cx="442.555"
                                     id="b"
                                     xlink:href="#a" />
                        <linearGradient
                                     id="a">
                                    <stop
                                                 id="stop4152"
                                                 offset="0"
                                                 style="stop-color:#1381c4;stop-opacity:1" />
                                    <stop
                                                 id="stop4154"
                                                 offset="1"
                                                 style="stop-color:#063d8a;stop-opacity:1" />
                        </linearGradient>
            </defs>
            <sodipodi:namedview
                         pagecolor="#ffffff"
                         bordercolor="#666666"
                         borderopacity="1"
                         objecttolerance="10"
                         gridtolerance="10"
                         guidetolerance="10"
                         inkscape:pageopacity="0"
                         inkscape:pageshadow="2"
                         inkscape:window-width="1920"
                         inkscape:window-height="1028"
                         id="namedview14"
                         showgrid="false"
                         inkscape:zoom="1.3828097"
                         inkscape:cx="85.333504"
                         inkscape:cy="85.333504"
                         inkscape:window-x="1358"
                         inkscape:window-y="-8"
                         inkscape:window-maximized="1"
                         inkscape:current-layer="svg2" />
            <path
                         inkscape:connector-curvature="0"
                         style="color:#000000;clip-rule:nonzero;display:inline;overflow:visible;visibility:visible;opacity:1;isolation:auto;mix-blend-mode:normal;color-interpolation:sRGB;color-interpolation-filters:linearRGB;solid-color:#000000;solid-opacity:1;fill:url(#b);fill-opacity:1;fill-rule:nonzero;stroke:none;stroke-width:0.2;stroke-linecap:round;stroke-linejoin:miter;stroke-miterlimit:4;stroke-dasharray:none;stroke-dashoffset:0;stroke-opacity:1;color-rendering:auto;image-rendering:auto;shape-rendering:auto;text-rendering:auto;enable-background:accumulate"
                         d="m 0,0 160,0 0,160 -160,0 z"
                         id="path4156" />
            <g
                         style="fill:#ffffff;stroke-width:0.65900999"
                         id="g6"
                         transform="translate(2.0176971,0)">
                        <path
                                     transform="matrix(1.37935,0,0,1.37935,-259.613,-1702.261)"
                                     d="m 238.58,1251.4 -1.05,0.1 -0.11,19.8 c 0,10.9 0.1,20 0.24,20.3 0.46,0.7 8.62,3.4 9,3 0.1,-0.1 0.2,-8.2 0.32,-18 l 0.22,-17.9 0.91,-0.1 c 0.57,-0.1 1.16,0.2 1.58,0.8 0.55,0.8 0.67,2.3 0.67,8.5 l 0,7.5 1.46,0.6 c 3.26,1.3 6.42,0.2 8,-3 0.66,-1.3 0.84,-2.5 0.83,-5.5 0,-3.3 -0.17,-4.1 -1.19,-6.2 -1.33,-2.7 -2.7,-3.9 -6.59,-5.7 -3.39,-1.6 -12.87,-4.3 -14.29,-4.2 z m -3.53,24.8 c -0.95,0 -13.5,4.5 -15.82,5.6 -4.15,2.1 -3.67,4.7 1.21,6.4 1.43,0.6 3.78,1.2 5.22,1.4 2.5,0.4 8.88,0.2 9.62,-0.2 0.19,-0.2 0.35,-1.2 0.35,-2.4 0,-2.4 0.2,-2.4 -5.13,-0.9 -2.07,0.6 -3.11,0.6 -3.96,0.3 -1.9,-0.6 -1.62,-1.3 0.97,-2.2 1.34,-0.5 3.72,-1.4 5.28,-2 l 2.84,-1.1 0,-2.5 c 0,-1.8 -0.15,-2.4 -0.58,-2.4 z"
                                     style="fill:#ffffff;stroke-width:0.43430001"
                                     id="path8"
                                     inkscape:connector-curvature="0" />
                        <path
                                     transform="matrix(1.37935,0,0,1.37935,-259.613,-1702.261)"
                                     d="m 258.52,1278.1 c -1.01,0 -2.02,0.1 -3,0.2 -1.92,0.2 -4.2,0.6 -5.06,0.9 -1.57,0.5 -1.58,0.5 -1.7,3.2 -0.1,2 0,2.6 0.46,2.6 0.32,0 2.82,-0.8 5.56,-1.7 3.78,-1.3 5.49,-1.7 7.11,-1.6 1.56,0.1 2.17,0.3 2.26,0.8 0.1,0.5 -1.59,1.3 -7.57,3.4 l -7.7,2.8 -0.12,2.5 c -0.1,1.9 0,2.6 0.42,2.6 0.3,0 5.14,-1.6 10.76,-3.6 10.42,-3.8 13.14,-5.2 13.14,-6.9 0,-2.8 -7.46,-5.3 -14.56,-5.2 z"
                                     style="fill:#ffffff;stroke-width:0.43430001"
                                     id="path10"
                                     inkscape:connector-curvature="0" />
            </g>
            <path
                         style="fill:#ffffff;stroke-width:0.96961999"
                         d="m 37.735126,96.365625 -14.534063,0.09375 0,2.3625 13.580625,0.1875 c 7.4625,0.08437 13.880625,0.271875 14.262188,0.45 0.872812,0.459375 1.979062,1.434375 1.979062,2.709375 0,0.45 0.03937,2.53125 -0.578437,3.2625 l -1.827188,1.03125 -11.8275,0.17813 -11.826562,0.1875 -1.219688,0.36562 c -2.071875,1.54688 -2.77875,3.62813 -3.015,7.80937 -0.272812,4.99688 -0.0019,5.45626 2.889375,5.27813 l 2.173125,-0.0937 0.2175,-4.18125 c 0.119063,-2.3625 0.355313,-4.54687 0.527813,-4.9125 0.735937,-1.63125 1.890937,-1.81875 13.29,-1.81875 9.707812,0 10.981875,-0.0844 12.381562,-0.72187 2.890313,-1.275 4.470938,-4.54688 3.625313,-7.36875 -0.6,-1.99688 -2.480625,-3.993755 -4.161563,-4.537505 -0.6825,-0.1875 -4.00125,-0.28125 -9.600937,-0.28125 l -6.335625,0 z m 43.62375,0 c -3.435938,0 -4.116563,0.1875 -5.1525,0.6375 -0.827813,0.459375 -1.90125,1.36875 -2.391563,2.1 -0.83625,1.181255 -0.900937,1.631255 -1.081875,8.446875 -0.200625,7.64063 -0.400312,8.55 -2.018437,9.45938 -0.563438,0.35625 -3.154688,0.54375 -7.545938,0.72187 -6.045,0.1875 -6.698437,0.27188 -6.816562,0.90938 -0.09094,0.36562 0.09188,0.90937 0.355312,1.18125 0.40875,0.54375 1.689375,0.6375 8.570625,0.54375 7.86375,-0.17813 8.127188,-0.17813 9.45375,-1.0875 2.5725,-1.81875 2.75625,-2.45625 2.97375,-10.64063 l 0.190313,-7.35937 1.054687,-1.0875 1.064063,-1.00313 6.97125,-0.178125 6.97125,-0.1875 0,-2.3625 -8.125313,-0.09375 -4.472812,0 z m 45.785624,0.28125 0,0.02813 -0.25312,0 c -0.62813,0 -0.77813,0 -1.275,0.271875 -0.65625,0.309375 -29.531254,18.12187 -30.140629,18.59062 -0.984375,0.75 -1.115625,1.65938 -0.290625,2.22188 0.525,0.36563 -0.103125,0.34687 14.728124,0.375 l 13.95,0 0,2.4375 c 0,0.10313 0.32813,0.1125 2.59688,0.1125 l 2.54062,0 0,-2.48438 5.08125,0 0,-2.56875 -2.475,0 c -1.9875,0 -2.5125,0 -2.56875,-0.11249 0,-0.1125 -0.12187,-2.55939 -0.12187,-8.68126 l 0,-8.568745 -0.15938,-0.421875 c -0.21562,-0.478125 -0.65625,-0.965625 -1.03125,-1.0875 -0.1125,0 -0.30937,-0.1125 -0.58125,-0.1125 z m -3.375,4.603125 c 0.1125,0.12187 0.12188,0.70313 0.16875,7.0875 0,5.14688 -0.009,7.06875 -0.12187,7.13437 -0.12188,0.12188 -1.95,0.12188 -11.42813,0.12188 l -11.45625,0 c 0,0 -0.1125,-0.12188 -0.1125,-0.16875 0,-0.1125 3.62813,-2.3625 11.37188,-7.15313 8.83125,-5.46562 11.25937,-6.92812 11.49375,-6.98437 l 0.0844,-0.0375 z m 13.58438,16.7625 c -0.40313,0 -0.57188,0 -0.57188,0.14063 0,0.13124 0,0.14062 0.45,0.14062 l 0.12188,0 0,-0.28125 z"
                         id="path12"
                         inkscape:connector-curvature="0" />
</svg>
