<svg xmlns="http://www.w3.org/2000/svg" width="170.667" height="170.667" viewBox="0 0 160 160"><path style="color:#000;clip-rule:nonzero;display:inline;overflow:visible;visibility:visible;opacity:1;isolation:auto;mix-blend-mode:normal;color-interpolation:sRGB;color-interpolation-filters:linearRGB;solid-color:#000;solid-opacity:1;fill:#021f59;fill-opacity:1;fill-rule:nonzero;stroke:none;stroke-width:.2;stroke-linecap:round;stroke-linejoin:miter;stroke-miterlimit:4;stroke-dasharray:none;stroke-dashoffset:0;stroke-opacity:1;color-rendering:auto;image-rendering:auto;shape-rendering:auto;text-rendering:auto;enable-background:accumulate" d="M292.047 446.181h160v160h-160z" transform="translate(-292.047 -446.181)"/><g style="stroke-width:.65901;fill:#fff"><path transform="translate(-259.613 -1702.261) scale(1.37935)" d="m238.58 1251.4-1.05.1-.11 19.8c0 10.9.1 20 .24 20.3.46.7 8.62 3.4 9 3 .1-.1.2-8.2.32-18l.22-17.9.91-.1c.57-.1 1.16.2 1.58.8.55.8.67 2.3.67 8.5v7.5l1.46.6c3.26 1.3 6.42.2 8-3 .66-1.3.84-2.5.83-5.5 0-3.3-.17-4.1-1.19-6.2-1.33-2.7-2.7-3.9-6.59-5.7-3.39-1.6-12.87-4.3-14.29-4.2zm-3.53 24.8c-.95 0-13.5 4.5-15.82 5.6-4.15 2.1-3.67 4.7 1.21 6.4 1.43.6 3.78 1.2 5.22 1.4 2.5.4 8.88.2 9.62-.2.19-.2.35-1.2.35-2.4 0-2.4.2-2.4-5.13-.9-2.07.6-3.11.6-3.96.3-1.9-.6-1.62-1.3.97-2.2 1.34-.5 3.72-1.4 5.28-2l2.84-1.1v-2.5c0-1.8-.15-2.4-.58-2.4z" style="fill:#fff;stroke-width:.4343"/><path transform="translate(-259.613 -1702.261) scale(1.37935)" d="M258.52 1278.1c-1.01 0-2.02.1-3 .2-1.92.2-4.2.6-5.06.9-1.57.5-1.58.5-1.7 3.2-.1 2 0 2.6.46 2.6.32 0 2.82-.8 5.56-1.7 3.78-1.3 5.49-1.7 7.11-1.6 1.56.1 2.17.3 2.26.8.1.5-1.59 1.3-7.57 3.4l-7.7 2.8-.12 2.5c-.1 1.9 0 2.6.42 2.6.3 0 5.14-1.6 10.76-3.6 10.42-3.8 13.14-5.2 13.14-6.9 0-2.8-7.46-5.3-14.56-5.2z" style="fill:#fff;stroke-width:.4343"/></g><path style="fill:#fff;stroke-width:.96962" d="m41.73 102.79-15.503.1v2.52l14.486.2c7.96.09 14.806.29 15.213.48.931.49 2.111 1.53 2.111 2.89 0 .48.042 2.7-.617 3.48l-1.949 1.1-12.616.19-12.615.2-1.301.39c-2.21 1.65-2.964 3.87-3.216 8.33-.291 5.33-.002 5.82 3.082 5.63l2.318-.1.232-4.46c.127-2.52.379-4.85.563-5.24.785-1.74 2.017-1.94 14.176-1.94 10.355 0 11.714-.09 13.207-.77 3.083-1.36 4.769-4.85 3.867-7.86-.64-2.13-2.646-4.26-4.439-4.84-.728-.2-4.268-.3-10.241-.3H41.73zm46.532 0c-3.665 0-4.391.2-5.496.68-.883.49-2.028 1.46-2.551 2.24-.892 1.26-.961 1.74-1.154 9.01-.214 8.15-.427 9.12-2.153 10.09-.601.38-3.365.58-8.049.77-6.448.2-7.145.29-7.271.97-.097.39.098.97.379 1.26.436.58 1.802.68 9.142.58 8.388-.19 8.669-.19 10.084-1.16 2.744-1.94 2.94-2.62 3.172-11.35l.203-7.85 1.125-1.16 1.135-1.07 7.436-.19 7.436-.2v-2.52l-8.667-.1h-4.771zm48.838.3v.03h-.27c-.67 0-.83 0-1.36.29-.7.33-31.5 19.33-32.15 19.83-1.05.8-1.19 1.77-.31 2.37.56.39-.11.37 15.71.4h14.88v2.6c0 .11.35.12 2.77.12h2.71V126.08h5.42v-2.74h-2.64c-2.12 0-2.68 0-2.74-.12 0-.12-.13-2.73-.13-9.26v-9.14l-.17-.45c-.23-.51-.7-1.03-1.1-1.16-.12 0-.33-.12-.62-.12zm-3.6 4.91c.12.13.13.75.18 7.56 0 5.49-.01 7.54-.13 7.61-.13.13-2.08.13-12.19.13h-12.22s-.12-.13-.12-.18c0-.12 3.87-2.52 12.13-7.63 9.42-5.83 12.01-7.39 12.26-7.45l.09-.04zm14.49 17.88c-.43 0-.61 0-.61.15 0 .14 0 .15.48.15h.13v-.3z" transform="scale(.9375)"/></svg>