<svg xmlns="http://www.w3.org/2000/svg" width="170.667" height="170.667" viewBox="0 0 160 160"><path style="color:#000;clip-rule:nonzero;display:inline;overflow:visible;visibility:visible;opacity:1;isolation:auto;mix-blend-mode:normal;color-interpolation:sRGB;color-interpolation-filters:linearRGB;solid-color:#000;solid-opacity:1;fill:#002f81;fill-opacity:1;fill-rule:nonzero;stroke:none;stroke-width:.2;stroke-linecap:round;stroke-linejoin:miter;stroke-miterlimit:4;stroke-dasharray:none;stroke-dashoffset:0;stroke-opacity:1;color-rendering:auto;image-rendering:auto;shape-rendering:auto;text-rendering:auto;enable-background:accumulate" d="M292.047 446.181h160v160h-160z" transform="translate(-292.047 -446.181)"/><path d="m238.58 1251.419-1.055.123-.101 19.775c-.056 10.876.053 20.014.24 20.307.453.71 8.613 3.374 9 2.94.052-.058.194-8.153.316-17.988l.222-17.881.906-.13c.568-.081 1.157.229 1.578.83.554.79.672 2.272.672 8.46v7.501l1.46.61c3.257 1.362 6.424.186 8.005-2.972.657-1.313.837-2.504.828-5.483-.01-3.298-.169-4.125-1.188-6.21-1.337-2.73-2.706-3.919-6.592-5.717-3.39-1.569-12.869-4.332-14.29-4.166zm-3.529 24.737c-.954 0-13.503 4.501-15.818 5.674-4.151 2.104-3.672 4.657 1.205 6.416 1.434.517 3.783 1.12 5.22 1.34 2.504.385 8.877.241 9.618-.217.196-.12.356-1.177.356-2.347 0-2.443.196-2.407-5.127-.94-2.07.57-3.117.666-3.963.368-1.9-.672-1.621-1.327.968-2.28 1.343-.494 3.72-1.38 5.282-1.969l2.84-1.07v-2.487c0-1.835-.153-2.488-.58-2.488zm23.47 1.92c-1.014.013-2.02.074-2.997.195-1.921.24-4.2.665-5.065.948-1.573.514-1.574.514-1.699 3.143-.096 2.025.01 2.63.46 2.63.322 0 2.824-.767 5.561-1.703 3.784-1.294 5.488-1.673 7.11-1.578 1.555.09 2.168.307 2.26.797.1.522-1.596 1.288-7.569 3.416l-7.697 2.743-.125 2.58c-.092 1.895.02 2.582.42 2.588.301 0 5.144-1.645 10.762-3.665 10.414-3.745 13.136-5.177 13.136-6.911 0-2.792-7.46-5.26-14.557-5.183zM249.991 1313.78c-3.78.014-4.534.187-5.672.767-.906.462-2.09 1.46-2.63 2.217-.924 1.297-.994 1.846-1.192 9.372-.22 8.364-.437 9.385-2.218 10.403-.615.351-3.47.608-8.296.746-6.653.19-7.371.283-7.502.967-.08.416.094 1.045.386 1.397.451.544 1.866.62 9.429.505 8.65-.13 8.939-.163 10.402-1.167 2.833-1.943 3.034-2.661 3.268-11.686l.21-8.091 1.166-1.165 1.166-1.166 7.67-.21 7.67-.21v-2.525l-8.94-.114c-2.06-.026-3.656-.042-4.917-.04zm-41.018 0c-2.051 0-4.38 0-6.974.026l-15.988.125v2.524l14.936.21c8.215.116 15.275.376 15.688.577.96.468 1.983 2.435 1.983 3.813 0 .586-.552 1.685-1.227 2.44l-1.226 1.375-13.007.21-13.007.21-1.544 1.179c-2.274 1.736-2.86 3.213-3.116 7.85-.301 5.463-.014 5.99 3.176 5.822l2.393-.125.24-4.628c.132-2.545.391-4.966.577-5.38.81-1.809 2.084-1.983 14.625-1.993 10.68-.013 12.083-.089 13.623-.788 3.173-1.441 4.92-5.009 3.984-8.134-.654-2.185-2.725-4.43-4.583-4.967-.748-.217-4.398-.334-10.553-.345zm61.186.15-.12 5.47c-.195 8.997-.907 8.625 16.531 8.625h13.336l1.43 1.43c1.621 1.62 1.856 3.257.771 5.355-1.216 2.353-2.068 2.471-17.84 2.471H269.95v1.192c0 .656.126 1.318.28 1.472.485.485 30.908.32 32.696-.176.897-.25 2.36-1.147 3.252-1.996 3.768-3.59 2.896-9.493-1.75-11.864-1.514-.772-2.518-.83-14.476-.83-15.427 0-14.642.27-14.445-4.961l.123-3.243 15.777-.21 15.778-.21v-2.525H270.16z" style="fill:#fff" transform="translate(-144.497 -1097.93) scale(.90902)"/></svg>