<svg xmlns="http://www.w3.org/2000/svg" width="160" height="160"><path style="color:#000;clip-rule:nonzero;display:inline;overflow:visible;visibility:visible;opacity:1;isolation:auto;mix-blend-mode:normal;color-interpolation:sRGB;color-interpolation-filters:linearRGB;solid-color:#000;solid-opacity:1;fill:#0f7b0e;fill-opacity:1;fill-rule:nonzero;stroke:none;stroke-width:.2;stroke-linecap:round;stroke-linejoin:miter;stroke-miterlimit:4;stroke-dasharray:none;stroke-dashoffset:0;stroke-opacity:1;color-rendering:auto;image-rendering:auto;shape-rendering:auto;text-rendering:auto;enable-background:accumulate" d="M0 0h160v160H0z"/><g style="fill:#fff;fill-opacity:1;stroke:none"><path style="fill:#fff;fill-opacity:1" d="M1763 3604c-122-15-279-51-378-89-110-41-245-107-245-120 0-8 24-15 63-19 140-16 400-125 635-264 57-34 113-62 123-62 11 0 66 28 122 62 134 81 355 188 457 222 46 15 118 32 161 39 52 7 79 16 79 24 0 29-233 128-395 168-213 53-409 65-622 39zM796 3138c-267-272-412-567-461-945-23-176-17-326 21-518 37-185 122-393 222-540 66-98 77-97 85 8 31 394 337 935 846 1491 44 49 81 95 81 101 0 14-152 162-264 258-150 128-345 247-402 247-22 0-50-23-128-102zM2923 3211c-127-61-298-189-463-348-66-63-120-122-120-130s49-69 109-136c432-481 706-940 791-1324 11-49 20-116 20-150 0-56 2-63 19-63 23 0 114 140 171 265 116 249 157 456 147 742-10 331-100 602-285 862-85 120-272 311-304 311-13 0-51-13-85-29zM1850 2328c-237-206-550-530-728-755-189-238-392-560-392-620 0-19 105-126 200-205 334-276 819-404 1275-337 352 52 672 212 938 468 41 39 47 50 47 86-1 184-362 640-959 1211-162 155-252 234-266 234-12 0-61-35-115-82z" transform="matrix(.02628 0 0 -.02646 26.067 115.314)"/></g><path style="fill:#fff;fill-opacity:1" d="M88.144 113.26c-6.387 0-10.853 4.887-10.853 11.883 0 7.006 4.466 11.89 10.853 11.89 6.383 0 10.834-4.884 10.834-11.89 0-6.996-4.451-11.884-10.834-11.884zm9.26.524 7.976 10.83-8.737 11.915h2.992l7.261-9.863 7.264 9.863h2.988l-8.74-11.915 7.973-10.83h-2.988l-6.497 8.833-6.502-8.833h-2.99zm-59.596.002 7.973 10.828-8.742 11.913h2.995l7.257-9.86 7.26 9.86h2.991l-8.741-11.913 7.976-10.828H53.79l-6.503 8.833-6.498-8.833h-2.98zm20.976 0v9.804h-3.076c-.4.52-1.305 1.77-1.65 2.283h4.726v10.654h9.236c5.003 0 8.112-2.54 8.112-6.638 0-1.79-.677-3.313-1.962-4.414a6.542 6.542 0 0 0-1.49-.95c1.65-.895 2.732-2.589 2.732-4.553 0-1.455-.535-6.186-7.392-6.186h-9.236zm29.36 1.876c4.859 0 8.25 3.9 8.25 9.48 0 5.585-3.391 9.485-8.25 9.485-4.867 0-8.277-3.9-8.277-9.484 0-5.58 3.41-9.48 8.277-9.48zm-26.807.495h6.683c1.81 0 4.837.452 4.837 3.616 0 2.392-1.764 3.817-4.837 3.817h-6.683v-7.433zm0 9.718h6.683c2.534 0 5.565.701 5.565 3.965 0 3.753-3.485 4.316-5.565 4.316h-6.683v-8.28z"/></svg>