<svg xmlns="http://www.w3.org/2000/svg" xmlns:xlink="http://www.w3.org/1999/xlink" width="425.623" height="519.375" xml:space="preserve"><defs><path id="a" d="M0-3.621h426.082v536.12H0z"/></defs><clipPath id="b"><use xlink:href="#a" overflow="visible"/></clipPath><path clip-path="url(#b)" fill="#A5C400" d="M0 .003h425.717v425.712H0z"/><path clip-path="url(#b)" fill="#FFF" d="M126.872 59.573h167.75c-18.741 96.225-48.536 196.696-50.243 305.68h-68.975c4.261-83.44 22.571-166.038 42.578-246.929h-91.11V59.573z"/><path clip-path="url(#b)" d="M.009 519.375h425.708V.003H.009m417.195 417.189H8.522V8.511h408.681v408.681z"/><path clip-path="url(#b)" d="M381.254 17.033v3.159h-6.739v21.33h-3.949v-21.33h-6.729v-3.159h17.417zm27.437 24.489h-3.959V22.234h-.115l-6.787 19.288h-3.221l-6.452-19.288h-.124v19.288h-3.95V17.033h6.279l6.106 18.219h.115l5.943-18.219h6.164v24.489z"/><text xml:space="preserve" style="font-style:normal;font-weight:400;font-size:85.33333px;line-height:1.25;font-family:sans-serif;letter-spacing:0;word-spacing:0;fill:#000;fill-opacity:1;stroke:none" x="107.71" y="498.47"><tspan x="107.71" y="498.47" style="font-size:85.33333px;fill:#fff">PEGI</tspan></text></svg>